# xmcd CD database file
#
# Track frame offsets:
#	150
#	19695
#	38977
#	56460
#	66810
#	79852
#	95797
#	112867
#	125595
#	138087
#	156375
#	173232
#
# Disc length: 2455 seconds
#
# Revision: 1
# Processed by: cddbd v1.5.1PL0 Copyright (c) Steve Scherf et al.
# Submitted via: CDex 1.51
#
DISCID=9d09950c
DTITLE=Kate Ceberano and Wendy Matthews - You've Always Got The Blues
DYEAR=1988
DGENRE=Blues
TTITLE0=You've Always Got The Blues
TTITLE1=Guilty (Through Neglect)
TTITLE2=Back From The Dead
TTITLE3=The Danger Zone
TTITLE4=Stringer
TTITLE5=Sing To Me
TTITLE6=The Girl In The Picture
TTITLE7=3 =2 and 1 (Shame)
TTITLE8=Cry Me A River
TTITLE9=Don't You take It Too Bad
TTITLE10=Young Love
TTITLE11=The Way You Look Tonight
EXTD=YEAR: 1988
EXTT0=
EXTT1=
EXTT2=
EXTT3=
EXTT4=
EXTT5=
EXTT6=
EXTT7=
EXTT8=
EXTT9=
EXTT10=
EXTT11=
PLAYORDER=
